<svg xmlns="http://www.w3.org/2000/svg" viewBox="0 0 212 280.85"><defs><style>.cls-1{fill:#063;}.cls-2{fill:#1d1d1b;}</style></defs><title>Fichier 1</title><g id="Calque_2" data-name="Calque 2"><g id="Calque_1-2" data-name="Calque 1"><path class="cls-1" d="M142.47,50.16a7.86,7.86,0,0,0-5.34-1.77,7.77,7.77,0,0,0-5.28,1.77q-2,1.77-3,6.06A58.8,58.8,0,0,0,128,68.07a58.41,58.41,0,0,0,.93,11.79q.93,4.29,3,6.06a7.77,7.77,0,0,0,5.28,1.77,7.86,7.86,0,0,0,5.34-1.77q2-1.77,3-6.06a59.28,59.28,0,0,0,.92-11.79,59.67,59.67,0,0,0-.92-11.85Q144.51,51.93,142.47,50.16Z"/><path class="cls-1" d="M141.45,123.18a12.08,12.08,0,0,0-6.78-1.71h-2.82v37.2h2.58a12.63,12.63,0,0,0,7-1.71,10,10,0,0,0,3.87-5.76,39.84,39.84,0,0,0,1.23-11.13,39.84,39.84,0,0,0-1.23-11.13A10.1,10.1,0,0,0,141.45,123.18Z"/><path class="cls-1" d="M0,0V280.85H212V0ZM56.09,87.27l1.08-.36a2.88,2.88,0,0,0,1.62-1.14,3.8,3.8,0,0,0,.42-1.92q.06-3.6.06-7.26v-17q0-3.63-.06-7.23a4.67,4.67,0,0,0-.33-1.92,2.42,2.42,0,0,0-1.47-1.14l-1.32-.48v-.6h29l.42,10H85l-3.42-6.3a6,6,0,0,0-1.38-1.8A3.24,3.24,0,0,0,78,49.47H68.33q-.06,4.26-.06,8.7V67h6.24a3,3,0,0,0,2-.6,6.31,6.31,0,0,0,1.26-1.74l1.26-2.28h.6v10.5h-.6l-1.32-2.28a8.49,8.49,0,0,0-1.23-1.74,2.67,2.67,0,0,0-2-.66H68.27v8q0,3.81.06,7.47a3,3,0,0,0,2.28,3.06l1.8.54v.6H56.09ZM92.21,149.1A18.58,18.58,0,0,1,88,155.64a18.27,18.27,0,0,1-6.06,4,18.89,18.89,0,0,1-7,1.35,19.26,19.26,0,0,1-7.05-1.32,17.88,17.88,0,0,1-6.06-3.93,18.63,18.63,0,0,1-4.23-6.51,27.26,27.26,0,0,1,0-18.18,18.27,18.27,0,0,1,10.35-10.47,18.73,18.73,0,0,1,7-1.35,19.66,19.66,0,0,1,7,1.29,17.5,17.5,0,0,1,6.06,3.9,18.58,18.58,0,0,1,4.23,6.54,24.7,24.7,0,0,1,1.56,9.15A24.34,24.34,0,0,1,92.21,149.1Zm61.12,1.65a17.51,17.51,0,0,1-7.53,6.78,25.82,25.82,0,0,1-11.37,2.34H119.67v-.6l1.26-.48a3,3,0,0,0,1.92-3.06V124.41a2.87,2.87,0,0,0-1.92-3.06l-1.26-.48v-.6h15.84a23.59,23.59,0,0,1,11,2.37,16.79,16.79,0,0,1,7.08,6.78A21.22,21.22,0,0,1,156,140,20.3,20.3,0,0,1,153.33,150.75Zm1.14-73.65a18.58,18.58,0,0,1-4.23,6.54,18.27,18.27,0,0,1-6.06,4A18.89,18.89,0,0,1,137.13,89a19.26,19.26,0,0,1-7-1.32A17.74,17.74,0,0,1,124,83.7a18.52,18.52,0,0,1-4.24-6.51,24.47,24.47,0,0,1-1.55-9.12A24.29,24.29,0,0,1,119.79,59a18.27,18.27,0,0,1,10.35-10.47,18.77,18.77,0,0,1,7-1.35,19.66,19.66,0,0,1,7.05,1.29,17.5,17.5,0,0,1,6.06,3.9,18.58,18.58,0,0,1,4.23,6.54A24.69,24.69,0,0,1,156,68.07,24.34,24.34,0,0,1,154.47,77.1Z"/><path class="cls-1" d="M80.21,122.16a7.86,7.86,0,0,0-5.34-1.77,7.77,7.77,0,0,0-5.28,1.77q-2,1.77-3,6.06a58.8,58.8,0,0,0-.93,11.85,58.41,58.41,0,0,0,.93,11.79q.93,4.29,3,6.06a7.77,7.77,0,0,0,5.28,1.77,7.86,7.86,0,0,0,5.34-1.77q2-1.77,3-6.06a58.41,58.41,0,0,0,.93-11.79,58.8,58.8,0,0,0-.93-11.85Q82.25,123.93,80.21,122.16Z"/><path class="cls-2" d="M32.33,30.76V250.09H179.67V30.76ZM174,244.43H38v-208H174Z"/><path class="cls-2" d="M58.91,203.91l.42-8.52a19.3,19.3,0,0,1,4.47-1.74,23.19,23.19,0,0,1,6-.72,18.73,18.73,0,0,1,7.74,1.35A9.34,9.34,0,0,1,81.89,198a10.2,10.2,0,0,1,1.38,5.28q0,4.14-4,8.07a81.82,81.82,0,0,1-11,8.67q-1.32,1-3.12,2.34T61.79,225h22.5v6.84H57.89v-5q2.16-2.1,4.23-4.17l3.93-3.93a48.17,48.17,0,0,0,6.45-7.89,13.86,13.86,0,0,0,2.13-7.41,13.1,13.1,0,0,0-1.5-6.69,4.89,4.89,0,0,0-4.5-2.55,6.71,6.71,0,0,0-3.45.93,7.75,7.75,0,0,0-2.79,3.21l-2.88,5.58Z"/><path class="cls-2" d="M103.15,232.77a5,5,0,0,1-3.66-1.5,4.91,4.91,0,0,1-1.5-3.6,5.11,5.11,0,0,1,1.5-3.66,5.07,5.07,0,0,1,7.32,0,5.11,5.11,0,0,1,1.5,3.66,4.91,4.91,0,0,1-1.5,3.6A5,5,0,0,1,103.15,232.77Z"/><path class="cls-2" d="M137.13,233a19.26,19.26,0,0,1-7-1.32A17.88,17.88,0,0,1,124,227.7a18.63,18.63,0,0,1-4.23-6.51,27.26,27.26,0,0,1,0-18.18,18.27,18.27,0,0,1,10.35-10.47,18.73,18.73,0,0,1,7-1.35,19.66,19.66,0,0,1,7.05,1.29,17.5,17.5,0,0,1,6.06,3.9,18.58,18.58,0,0,1,4.23,6.54,24.7,24.7,0,0,1,1.56,9.15,24.34,24.34,0,0,1-1.56,9,18.58,18.58,0,0,1-4.23,6.54,18.27,18.27,0,0,1-6.06,4A18.89,18.89,0,0,1,137.13,233Zm0-1.26a7.86,7.86,0,0,0,5.34-1.77q2-1.77,3-6.06a58.41,58.41,0,0,0,.93-11.79,58.8,58.8,0,0,0-.93-11.85q-.93-4.29-3-6.06a7.86,7.86,0,0,0-5.34-1.77,7.77,7.77,0,0,0-5.28,1.77q-2,1.77-3,6.06a58.8,58.8,0,0,0-.93,11.85,58.41,58.41,0,0,0,.93,11.79q.93,4.29,3,6.06A7.77,7.77,0,0,0,137.13,231.69Z"/></g></g></svg>