<?xml version="1.0" encoding="utf-8"?>
<!-- Generator: Adobe Illustrator 24.0.1, SVG Export Plug-In . SVG Version: 6.00 Build 0)  -->
<svg version="1.1" id="Calque_1" xmlns="http://www.w3.org/2000/svg" xmlns:xlink="http://www.w3.org/1999/xlink" x="0px" y="0px"
	 viewBox="0 0 1920 50" style="enable-background:new 0 0 1920 50;" xml:space="preserve">
<style type="text/css">
	.st0{fill:none;}
	.st1{font-family:'PlayfairDisplay-Regular';}
	.st2{font-size:36px;}
</style>
<rect x="40" y="9.67" class="st0" width="155" height="30.38"/>
<text transform="matrix(1 0 0 1 40 37.8945)" class="st1 st2">Bill Gates</text>
<rect x="255.2" y="9.67" class="st0" width="280" height="30.38"/>
<text transform="matrix(1 0 0 1 255.2 37.8945)" class="st1 st2">Richard Branson</text>
<rect x="595.4" y="9.67" class="st0" width="161" height="30.38"/>
<text transform="matrix(1 0 0 1 595.4 37.8945)" class="st1 st2">Jeff Bezos</text>
<rect x="816.6" y="9.67" class="st0" width="326" height="30.38"/>
<text transform="matrix(1 0 0 1 816.6 37.8945)" class="st1 st2">Leonardo Di Caprio</text>
<rect x="1202.8" y="9.67" class="st0" width="376" height="30.38"/>
<text transform="matrix(1 0 0 1 1202.8 37.8945)" class="st1 st2">Arnold Schwarznegger</text>
<rect x="1639" y="9.67" class="st0" width="242" height="30.38"/>
<text transform="matrix(1 0 0 1 1639 37.8945)" class="st1 st2">Vladimir Putin</text>
</svg>
